<svg width="261" height="66" viewBox="0 0 261 66" fill="none" xmlns="http://www.w3.org/2000/svg">
<mask id="mask0_94_162" style="mask-type:luminance" maskUnits="userSpaceOnUse" x="0" y="0" width="261" height="66">
<path d="M260.4 0H0V66H260.4V0Z" fill="white"/>
</mask>
<g mask="url(#mask0_94_162)">
<path d="M83.2 41L80.6 37.3C80.5 37.3 80.3 37.3 80.1 37.3H77.3V41H75V28.4H80.2C81.3 28.4 82.2 28.6 83 28.9C83.8 29.3 84.4 29.8 84.9 30.4C85.3 31.1 85.5 31.9 85.5 32.8C85.5 33.7 85.3 34.6 84.8 35.2C84.3 35.9 83.7 36.4 82.8 36.7L85.7 40.8H83.2V41ZM83.1 32.9C83.1 32.1 82.8 31.5 82.3 31.1C81.8 30.7 81 30.5 80 30.5H77.3V35.5H80C81 35.5 81.8 35.3 82.3 34.9C82.9 34.3 83.1 33.7 83.1 32.9Z" fill="white"/>
<path d="M96.0002 35.7L94.0002 37.7V41H91.7002V28.4H94.0002V34.8L100.2 28.4H102.8L97.6002 34L103.2 40.9H100.5L96.0002 35.7Z" fill="white"/>
<path d="M119.2 41.2C117.9 41.2 116.8 40.9 115.8 40.4C114.8 39.8 114 39.1 113.4 38.1C112.8 37.1 112.5 36 112.5 34.8C112.5 33.6 112.8 32.5 113.4 31.5C114 30.5 114.8 29.8 115.8 29.2C116.8 28.6 118 28.4 119.2 28.4C120.2 28.4 121.2 28.6 122 28.9C122.8 29.2 123.6 29.8 124.2 30.5L122.7 31.9C121.8 30.9 120.7 30.4 119.3 30.4C118.4 30.4 117.7 30.6 117 31C116.3 31.4 115.8 31.9 115.4 32.6C115 33.3 114.8 34 114.8 34.9C114.8 35.8 115 36.5 115.4 37.2C115.8 37.9 116.3 38.4 117 38.8C117.7 39.2 118.5 39.4 119.3 39.4C120.6 39.4 121.7 38.9 122.7 37.9L124.2 39.3C123.6 40 122.9 40.5 122 40.9C121.2 41 120.2 41.2 119.2 41.2Z" fill="white"/>
<path d="M130 28.4H132.3V41H130V28.4Z" fill="white"/>
<path d="M150.499 28.4V41H148.599L141.699 32.5V41H139.399V28.4H141.299L148.199 36.9V28.4H150.499Z" fill="white"/>
<path d="M166.9 39V41H157.5V28.4H166.7V30.4H159.9V33.7H166V35.6H159.9V39H166.9Z" fill="white"/>
<path d="M184.7 41V32.7L180.6 39.6H179.6L175.5 32.8V41H173.3V28.4H175.2L180.2 36.7L185.1 28.4H187V41H184.7Z" fill="white"/>
<path d="M202.1 38.1H195.8L194.6 41H192.2L197.9 28.4H200.2L205.9 41H203.5L202.1 38.1ZM201.3 36.3L198.9 30.8L196.5 36.3H201.3Z" fill="white"/>
<path d="M212.9 30.4H208.7V28.4H219.4V30.4H215.2V41H212.9V30.4Z" fill="white"/>
<path d="M224.8 28.4H227.1V41H224.8V28.4Z" fill="white"/>
<path d="M239.9 41.2C238.6 41.2 237.5 40.9 236.5 40.4C235.5 39.8 234.7 39.1 234.1 38.1C233.5 37.1 233.2 36 233.2 34.8C233.2 33.6 233.5 32.5 234.1 31.5C234.7 30.5 235.5 29.8 236.5 29.2C237.5 28.6 238.7 28.4 239.9 28.4C240.9 28.4 241.9 28.6 242.7 28.9C243.5 29.3 244.3 29.8 244.9 30.5L243.4 31.9C242.5 30.9 241.4 30.4 240 30.4C239.1 30.4 238.4 30.6 237.7 31C237 31.4 236.5 31.9 236.1 32.6C235.7 33.3 235.5 34 235.5 34.9C235.5 35.8 235.7 36.5 236.1 37.2C236.5 37.9 237 38.4 237.7 38.8C238.4 39.2 239.2 39.4 240 39.4C241.3 39.4 242.4 38.9 243.4 37.9L244.9 39.3C244.3 40 243.6 40.5 242.7 40.9C241.9 41 241 41.2 239.9 41.2Z" fill="white"/>
<path d="M254.7 41.2C253.7 41.2 252.8 41.1 251.9 40.8C251 40.5 250.3 40.2 249.8 39.7L250.6 37.9C251.1 38.3 251.7 38.6 252.5 38.9C253.3 39.2 254 39.3 254.8 39.3C255.7 39.3 256.4 39.2 256.9 38.9C257.4 38.6 257.6 38.2 257.6 37.7C257.6 37.3 257.5 37 257.2 36.8C256.9 36.6 256.6 36.4 256.2 36.2C255.8 36.1 255.3 35.9 254.6 35.8C253.6 35.6 252.9 35.3 252.3 35.1C251.7 34.9 251.2 34.5 250.8 34C250.4 33.5 250.2 32.9 250.2 32C250.2 31.3 250.4 30.7 250.8 30.1C251.2 29.5 251.8 29.1 252.5 28.7C253.3 28.4 254.2 28.2 255.3 28.2C256.1 28.2 256.8 28.3 257.6 28.5C258.3 28.7 259 29 259.5 29.3L258.8 31.1C258.2 30.8 257.7 30.5 257.1 30.4C256.5 30.3 255.9 30.1 255.4 30.1C254.5 30.1 253.8 30.3 253.3 30.6C252.9 30.9 252.6 31.3 252.6 31.8C252.6 32.2 252.7 32.5 253 32.7C253.3 32.9 253.6 33.1 254 33.2C254.4 33.3 254.9 33.5 255.6 33.6C256.5 33.8 257.3 34 257.9 34.3C258.5 34.5 259 34.9 259.4 35.4C259.8 35.9 260 36.5 260 37.3C260 38 259.8 38.6 259.4 39.2C259 39.8 258.5 40.2 257.7 40.5C256.7 41 255.8 41.2 254.7 41.2Z" fill="white"/>
<path d="M232.399 46.8H102.399V49H232.399V46.8Z" fill="url(#paint0_linear_94_162)"/>
</g>
<g clip-path="url(#clip0_94_162)">
<mask id="mask1_94_162" style="mask-type:luminance" maskUnits="userSpaceOnUse" x="8" y="14" width="54" height="41">
<path d="M31.744 53.6048C17.0764 51.5205 6.06042 45.5093 8.28668 31.7775C10.5129 18.0457 27.7326 12.3331 42.4001 14.4173C57.0677 16.5016 63.6243 25.5883 61.4048 39.3202C59.1854 53.052 46.4454 55.7017 31.744 53.6048Z" fill="white"/>
</mask>
<g mask="url(#mask1_94_162)">
<path d="M63.6245 12.3521H6.06055V55.708H63.6245V12.3521Z" fill="url(#paint1_linear_94_162)" fill-opacity="0.7"/>
</g>
<mask id="mask2_94_162" style="mask-type:luminance" maskUnits="userSpaceOnUse" x="9" y="6" width="52" height="56">
<path d="M21.6319 16.4297C33.1511 5.80872 45.6113 1.09545 55.8853 13.0038C66.1592 24.9121 59.6144 43.3647 48.0951 53.9856C36.5758 64.6065 24.4408 63.3692 14.1945 51.4609C3.94822 39.5526 10.1403 27.0506 21.6595 16.4154" fill="white"/>
</mask>
<g mask="url(#mask2_94_162)">
<path d="M66.1257 1.09546H3.86621V64.6066H66.1257V1.09546Z" fill="url(#paint2_linear_94_162)" fill-opacity="0.6"/>
</g>
<mask id="mask3_94_162" style="mask-type:luminance" maskUnits="userSpaceOnUse" x="8" y="4" width="54" height="57">
<path d="M55.1095 22.6508C63.0841 36.4688 65.1224 50.0364 51.2687 58.0182C37.415 66 20.7505 55.6151 12.7759 41.7971C4.80125 27.9792 8.55614 15.9493 22.3741 7.97462C36.192 -3.00407e-05 47.1277 8.83287 55.1095 22.6508Z" fill="white"/>
</mask>
<g mask="url(#mask3_94_162)">
<path d="M65.0794 0H4.79395V66H65.0794V0Z" fill="url(#paint3_linear_94_162)" fill-opacity="0.8"/>
</g>
<path fill-rule="evenodd" clip-rule="evenodd" d="M24.3 42.9L21 45.3V23H32.3C37.1 23 40.7 28.9 36.6 33L33.3 36.1L40.8 44.6H36.8L30.8 37.7L26.5 41.2V37.1L33.6 31.3C36.2 28.7 34.7 26.2 31.6 26.2L24.5 26.3L24.3 42.9Z" fill="white"/>
<path fill-rule="evenodd" clip-rule="evenodd" d="M42.5998 42.9L36.7998 36.2L45.6998 26.5H49.9998L40.6998 36.2L46.5998 42.9H42.5998Z" fill="white"/>
</g>
<defs>
<linearGradient id="paint0_linear_94_162" x1="102.399" y1="47.9286" x2="232.4" y2="47.8714" gradientUnits="userSpaceOnUse">
<stop stop-color="#000003"/>
<stop offset="1" stop-color="#D4D4D4"/>
</linearGradient>
<linearGradient id="paint1_linear_94_162" x1="6.06055" y1="36.5121" x2="63.6245" y2="36.5121" gradientUnits="userSpaceOnUse">
<stop stop-color="#42D2F8"/>
<stop offset="1" stop-color="#E051D3"/>
</linearGradient>
<linearGradient id="paint2_linear_94_162" x1="3.86621" y1="36.4869" x2="66.1257" y2="36.4869" gradientUnits="userSpaceOnUse">
<stop stop-color="#B3EDFC"/>
<stop offset="1" stop-color="#F2B9ED"/>
</linearGradient>
<linearGradient id="paint3_linear_94_162" x1="4.79395" y1="36.7783" x2="65.0794" y2="36.7783" gradientUnits="userSpaceOnUse">
<stop stop-color="#FFD201"/>
<stop offset="1" stop-color="#E7218B"/>
</linearGradient>
<clipPath id="clip0_94_162">
<rect width="54" height="57" fill="white" transform="translate(8 4)"/>
</clipPath>
</defs>
</svg>
